# xmcd
#
# Track frame offsets: 
#        150
#        16237
#        46991
#
# Disc length: 1036 seconds
#
# Revision: 0
# Processed by: cddbd v1.5.2PL0 Copyright (c) Steve Scherf et al.
# Submitted via: ExactAudioCopy v1.0b3
#
DISCID=19040a03
DTITLE=FX - Don't You Want Me
DYEAR=1900
DGENRE=
TTITLE0=Don't You Want Me (Single Cut)
TTITLE1=Don't You Want Me (X-Tended Mix)
TTITLE2=Jam Euphoria (Live Version)
EXTD=
EXTT0=
EXTT1=
EXTT2=
PLAYORDER=
